<mxfile host="app.diagrams.net" agent="Mozilla/5.0 (Windows NT 10.0; Win64; x64) AppleWebKit/537.36 (KHTML, like Gecko) Chrome/129.0.0.0 Safari/537.36" version="24.7.17">
  <diagram id="l8hXMBHkgcEJcSW0mbfh" name="Page-1">
    <mxGraphModel dx="875" dy="471" grid="1" gridSize="10" guides="1" tooltips="1" connect="1" arrows="1" fold="1" page="1" pageScale="1" pageWidth="1169" pageHeight="827" math="1" shadow="0">
      <root>
        <mxCell id="0" />
        <mxCell id="1" parent="0" />
        <mxCell id="0IGek_eJKDW3pPInhwZh-2" value="" style="shape=image;verticalLabelPosition=bottom;verticalAlign=top;imageAspect=0;aspect=fixed;image=data:image/svg+xml,PHN2ZyB4bWxucz0iaHR0cDovL3d3dy53My5vcmcvMjAwMC9zdmciIHZlcnNpb249IjEiIHZpZXdCb3g9IjAgMCA0OCA0OCIgZW5hYmxlLWJhY2tncm91bmQ9Im5ldyAwIDAgNDggNDgiPiYjeGE7ICAgIDxnIGZpbGw9IiMxNTY1QzAiPiYjeGE7ICAgICAgICA8cG9seWdvbiBwb2ludHM9IjQ2LjEsMjQgMzMsMzUgMzMsMTMiLz4mI3hhOyAgICAgICAgPHJlY3QgeD0iMTAiIHk9IjIwIiB3aWR0aD0iNCIgaGVpZ2h0PSI4Ii8+JiN4YTsgICAgICAgIDxyZWN0IHg9IjQiIHk9IjIwIiB3aWR0aD0iNCIgaGVpZ2h0PSI4Ii8+JiN4YTsgICAgICAgIDxyZWN0IHg9IjE2IiB5PSIyMCIgd2lkdGg9IjQiIGhlaWdodD0iOCIvPiYjeGE7ICAgICAgICA8cmVjdCB4PSIyMiIgeT0iMjAiIHdpZHRoPSIxNCIgaGVpZ2h0PSI4Ii8+JiN4YTsgICAgPC9nPiYjeGE7PC9zdmc+;rotation=-26;" vertex="1" parent="1">
          <mxGeometry x="230" y="280" width="48" height="48" as="geometry" />
        </mxCell>
        <mxCell id="0IGek_eJKDW3pPInhwZh-3" value="" style="shape=image;verticalLabelPosition=bottom;verticalAlign=top;imageAspect=0;aspect=fixed;image=data:image/svg+xml,PHN2ZyB4bWxucz0iaHR0cDovL3d3dy53My5vcmcvMjAwMC9zdmciIHZlcnNpb249IjEiIHZpZXdCb3g9IjAgMCA0OCA0OCIgZW5hYmxlLWJhY2tncm91bmQ9Im5ldyAwIDAgNDggNDgiPiYjeGE7ICAgIDxnIGZpbGw9IiNGRkE3MjYiPiYjeGE7ICAgICAgICA8Y2lyY2xlIGN4PSIxMCIgY3k9IjI2IiByPSI0Ii8+JiN4YTsgICAgICAgIDxjaXJjbGUgY3g9IjM4IiBjeT0iMjYiIHI9IjQiLz4mI3hhOyAgICA8L2c+JiN4YTsgICAgPHBhdGggZmlsbD0iI0ZGQjc0RCIgZD0iTTM5LDE5YzAtMTIuNy0zMC04LjMtMzAsMGMwLDEuOCwwLDguMiwwLDEwYzAsOC4zLDYuNywxNSwxNSwxNXMxNS02LjcsMTUtMTVDMzksMjcuMiwzOSwyMC44LDM5LDE5eiIvPiYjeGE7ICAgIDxwYXRoIGZpbGw9IiNGRjU3MjIiIGQ9Ik0yNCwzQzE0LjYsMyw3LDEwLjYsNywyMGMwLDEuMiwwLDMuNCwwLDMuNEw5LDI1di0zbDIxLTkuOGw5LDkuOHYzbDItMS42YzAsMCwwLTIuMSwwLTMuNCBDNDEsMTIsMzUuMywzLDI0LDN6Ii8+JiN4YTsgICAgPGcgZmlsbD0iIzc4NDcxOSI+JiN4YTsgICAgICAgIDxjaXJjbGUgY3g9IjMxIiBjeT0iMjYiIHI9IjIiLz4mI3hhOyAgICAgICAgPGNpcmNsZSBjeD0iMTciIGN5PSIyNiIgcj0iMiIvPiYjeGE7ICAgIDwvZz4mI3hhOyAgICA8cGF0aCBmaWxsPSIjNzU3NTc1IiBkPSJNNDMsMjRjLTAuNiwwLTEsMC40LTEsMXYtN2MwLTguOC03LjItMTYtMTYtMTZoLTdjLTAuNiwwLTEsMC40LTEsMXMwLjQsMSwxLDFoN2M3LjcsMCwxNCw2LjMsMTQsMTR2MTAgYzAsMC42LDAuNCwxLDEsMXMxLTAuNCwxLTF2MmMwLDMuOS0zLjEsNy03LDdIMjRjLTAuNiwwLTEsMC40LTEsMXMwLjQsMSwxLDFoMTFjNSwwLDktNCw5LTl2LTVDNDQsMjQuNCw0My42LDI0LDQzLDI0eiIvPiYjeGE7ICAgIDxnIGZpbGw9IiMzNzQ3NEYiPiYjeGE7ICAgICAgICA8cGF0aCBkPSJNNDMsMjJoLTFjLTEuMSwwLTIsMC45LTIsMnY0YzAsMS4xLDAuOSwyLDIsMmgxYzEuMSwwLDItMC45LDItMnYtNEM0NSwyMi45LDQ0LjEsMjIsNDMsMjJ6Ii8+JiN4YTsgICAgICAgIDxjaXJjbGUgY3g9IjI0IiBjeT0iMzgiIHI9IjIiLz4mI3hhOyAgICA8L2c+JiN4YTs8L3N2Zz4=;" vertex="1" parent="1">
          <mxGeometry x="170" y="310" width="48" height="48" as="geometry" />
        </mxCell>
        <mxCell id="0IGek_eJKDW3pPInhwZh-4" value="" style="shape=image;verticalLabelPosition=bottom;verticalAlign=top;imageAspect=0;aspect=fixed;image=data:image/svg+xml,PHN2ZyB4bWxucz0iaHR0cDovL3d3dy53My5vcmcvMjAwMC9zdmciIHZlcnNpb249IjEiIHZpZXdCb3g9IjAgMCA0OCA0OCIgZW5hYmxlLWJhY2tncm91bmQ9Im5ldyAwIDAgNDggNDgiPiYjeGE7ICAgIDxwYXRoIGZpbGw9IiM2MTYxNjEiIGQ9Ik00MCwxNkg4djI0YzAsMi4yLDEuOCw0LDQsNGgyNGMyLjIsMCw0LTEuOCw0LTRWMTZ6Ii8+JiN4YTsgICAgPHBhdGggZmlsbD0iIzQyNDI0MiIgZD0iTTM2LDRIMTJDOS44LDQsOCw1LjgsOCw4djloMzJWOEM0MCw1LjgsMzguMiw0LDM2LDR6Ii8+JiN4YTsgICAgPHBhdGggZmlsbD0iIzlDQ0M2NSIgZD0iTTM2LDE0SDEyYy0wLjYsMC0xLTAuNC0xLTFWOGMwLTAuNiwwLjQtMSwxLTFoMjRjMC42LDAsMSwwLjQsMSwxdjVDMzcsMTMuNiwzNi42LDE0LDM2LDE0eiIvPiYjeGE7ICAgIDxnIGZpbGw9IiMzMzY5MUUiPiYjeGE7ICAgICAgICA8cmVjdCB4PSIzMyIgeT0iMTAiIHdpZHRoPSIyIiBoZWlnaHQ9IjIiLz4mI3hhOyAgICAgICAgPHJlY3QgeD0iMjkiIHk9IjEwIiB3aWR0aD0iMiIgaGVpZ2h0PSIyIi8+JiN4YTsgICAgPC9nPiYjeGE7ICAgIDxwYXRoIGZpbGw9IiNGRjUyNTIiIGQ9Ik0zNiwyM2gtM2MtMC42LDAtMS0wLjQtMS0xdi0yYzAtMC42LDAuNC0xLDEtMWgzYzAuNiwwLDEsMC40LDEsMXYyQzM3LDIyLjYsMzYuNiwyMywzNiwyM3oiLz4mI3hhOyAgICA8ZyBmaWxsPSIjRTBFMEUwIj4mI3hhOyAgICAgICAgPHBhdGggZD0iTTE1LDIzaC0zYy0wLjYsMC0xLTAuNC0xLTF2LTJjMC0wLjYsMC40LTEsMS0xaDNjMC42LDAsMSwwLjQsMSwxdjJDMTYsMjIuNiwxNS42LDIzLDE1LDIzeiIvPiYjeGE7ICAgICAgICA8cGF0aCBkPSJNMjIsMjNoLTNjLTAuNiwwLTEtMC40LTEtMXYtMmMwLTAuNiwwLjQtMSwxLTFoM2MwLjYsMCwxLDAuNCwxLDF2MkMyMywyMi42LDIyLjYsMjMsMjIsMjN6Ii8+JiN4YTsgICAgICAgIDxwYXRoIGQ9Ik0yOSwyM2gtM2MtMC42LDAtMS0wLjQtMS0xdi0yYzAtMC42LDAuNC0xLDEtMWgzYzAuNiwwLDEsMC40LDEsMXYyQzMwLDIyLjYsMjkuNiwyMywyOSwyM3oiLz4mI3hhOyAgICAgICAgPHBhdGggZD0iTTE1LDI5aC0zYy0wLjYsMC0xLTAuNC0xLTF2LTJjMC0wLjYsMC40LTEsMS0xaDNjMC42LDAsMSwwLjQsMSwxdjJDMTYsMjguNiwxNS42LDI5LDE1LDI5eiIvPiYjeGE7ICAgICAgICA8cGF0aCBkPSJNMjIsMjloLTNjLTAuNiwwLTEtMC40LTEtMXYtMmMwLTAuNiwwLjQtMSwxLTFoM2MwLjYsMCwxLDAuNCwxLDF2MkMyMywyOC42LDIyLjYsMjksMjIsMjl6Ii8+JiN4YTsgICAgICAgIDxwYXRoIGQ9Ik0yOSwyOWgtM2MtMC42LDAtMS0wLjQtMS0xdi0yYzAtMC42LDAuNC0xLDEtMWgzYzAuNiwwLDEsMC40LDEsMXYyQzMwLDI4LjYsMjkuNiwyOSwyOSwyOXoiLz4mI3hhOyAgICAgICAgPHBhdGggZD0iTTE1LDM1aC0zYy0wLjYsMC0xLTAuNC0xLTF2LTJjMC0wLjYsMC40LTEsMS0xaDNjMC42LDAsMSwwLjQsMSwxdjJDMTYsMzQuNiwxNS42LDM1LDE1LDM1eiIvPiYjeGE7ICAgICAgICA8cGF0aCBkPSJNMjIsMzVoLTNjLTAuNiwwLTEtMC40LTEtMXYtMmMwLTAuNiwwLjQtMSwxLTFoM2MwLjYsMCwxLDAuNCwxLDF2MkMyMywzNC42LDIyLjYsMzUsMjIsMzV6Ii8+JiN4YTsgICAgICAgIDxwYXRoIGQ9Ik0yOSwzNWgtM2MtMC42LDAtMS0wLjQtMS0xdi0yYzAtMC42LDAuNC0xLDEtMWgzYzAuNiwwLDEsMC40LDEsMXYyQzMwLDM0LjYsMjkuNiwzNSwyOSwzNXoiLz4mI3hhOyAgICAgICAgPHBhdGggZD0iTTE1LDQxaC0zYy0wLjYsMC0xLTAuNC0xLTF2LTJjMC0wLjYsMC40LTEsMS0xaDNjMC42LDAsMSwwLjQsMSwxdjJDMTYsNDAuNiwxNS42LDQxLDE1LDQxeiIvPiYjeGE7ICAgICAgICA8cGF0aCBkPSJNMjIsNDFoLTNjLTAuNiwwLTEtMC40LTEtMXYtMmMwLTAuNiwwLjQtMSwxLTFoM2MwLjYsMCwxLDAuNCwxLDF2MkMyMyw0MC42LDIyLjYsNDEsMjIsNDF6Ii8+JiN4YTsgICAgICAgIDxwYXRoIGQ9Ik0yOSw0MWgtM2MtMC42LDAtMS0wLjQtMS0xdi0yYzAtMC42LDAuNC0xLDEtMWgzYzAuNiwwLDEsMC40LDEsMXYyQzMwLDQwLjYsMjkuNiw0MSwyOSw0MXoiLz4mI3hhOyAgICA8L2c+JiN4YTsgICAgPGcgZmlsbD0iI0JEQkRCRCI+JiN4YTsgICAgICAgIDxwYXRoIGQ9Ik0zNiwyOWgtM2MtMC42LDAtMS0wLjQtMS0xdi0yYzAtMC42LDAuNC0xLDEtMWgzYzAuNiwwLDEsMC40LDEsMXYyQzM3LDI4LjYsMzYuNiwyOSwzNiwyOXoiLz4mI3hhOyAgICAgICAgPHBhdGggZD0iTTM2LDM1aC0zYy0wLjYsMC0xLTAuNC0xLTF2LTJjMC0wLjYsMC40LTEsMS0xaDNjMC42LDAsMSwwLjQsMSwxdjJDMzcsMzQuNiwzNi42LDM1LDM2LDM1eiIvPiYjeGE7ICAgICAgICA8cGF0aCBkPSJNMzYsNDFoLTNjLTAuNiwwLTEtMC40LTEtMXYtMmMwLTAuNiwwLjQtMSwxLTFoM2MwLjYsMCwxLDAuNCwxLDF2MkMzNyw0MC42LDM2LjYsNDEsMzYsNDF6Ii8+JiN4YTsgICAgPC9nPiYjeGE7PC9zdmc+;" vertex="1" parent="1">
          <mxGeometry x="290" y="250" width="48" height="48" as="geometry" />
        </mxCell>
        <mxCell id="0IGek_eJKDW3pPInhwZh-5" value="" style="shape=image;verticalLabelPosition=bottom;verticalAlign=top;imageAspect=0;aspect=fixed;image=data:image/svg+xml,PHN2ZyB4bWxucz0iaHR0cDovL3d3dy53My5vcmcvMjAwMC9zdmciIHZlcnNpb249IjEiIHZpZXdCb3g9IjAgMCA0OCA0OCIgZW5hYmxlLWJhY2tncm91bmQ9Im5ldyAwIDAgNDggNDgiPiYjeGE7ICAgIDxnIGZpbGw9IiMxNTY1QzAiPiYjeGE7ICAgICAgICA8cG9seWdvbiBwb2ludHM9IjQ2LjEsMjQgMzMsMzUgMzMsMTMiLz4mI3hhOyAgICAgICAgPHJlY3QgeD0iMTAiIHk9IjIwIiB3aWR0aD0iNCIgaGVpZ2h0PSI4Ii8+JiN4YTsgICAgICAgIDxyZWN0IHg9IjQiIHk9IjIwIiB3aWR0aD0iNCIgaGVpZ2h0PSI4Ii8+JiN4YTsgICAgICAgIDxyZWN0IHg9IjE2IiB5PSIyMCIgd2lkdGg9IjQiIGhlaWdodD0iOCIvPiYjeGE7ICAgICAgICA8cmVjdCB4PSIyMiIgeT0iMjAiIHdpZHRoPSIxNCIgaGVpZ2h0PSI4Ii8+JiN4YTsgICAgPC9nPiYjeGE7PC9zdmc+;rotation=45;" vertex="1" parent="1">
          <mxGeometry x="230" y="358" width="48" height="48" as="geometry" />
        </mxCell>
        <mxCell id="0IGek_eJKDW3pPInhwZh-6" value="" style="shape=image;verticalLabelPosition=bottom;verticalAlign=top;imageAspect=0;aspect=fixed;image=data:image/svg+xml,PHN2ZyB4bWxucz0iaHR0cDovL3d3dy53My5vcmcvMjAwMC9zdmciIHZlcnNpb249IjEiIHZpZXdCb3g9IjAgMCA0OCA0OCIgZW5hYmxlLWJhY2tncm91bmQ9Im5ldyAwIDAgNDggNDgiPiYjeGE7ICAgIDxwYXRoIGZpbGw9IiMwMDk2ODgiIGQ9Ik0zOS4yLDguNGwtMS44LDEuOGMtNi4zLDYuNS01LjQsMjIsMCwyNy42bDEuOCwxLjhjMC41LDAuNSwxLjMsMC41LDEuOCwwbDMuNi0zLjdjMC41LTAuNSwwLjUtMS4zLDAtMS44IGwtMy40LTMuNGgtNC44Yy0xLjMtMS4zLTEuMy0xMi4xLDAtMTMuNGg0LjhsMy4zLTMuNGMwLjUtMC41LDAuNS0xLjMsMC0xLjhMNDEsOC40QzQwLjUsNy45LDM5LjcsNy45LDM5LjIsOC40eiIvPiYjeGE7ICAgIDxwYXRoIGZpbGw9IiMwMDk2ODgiIGQ9Ik0xMS4yLDguNGwtMS44LDEuOGMtNi4zLDYuNS01LjQsMjIsMCwyNy42bDEuOCwxLjhjMC41LDAuNSwxLjMsMC41LDEuOCwwbDMuNi0zLjdjMC41LTAuNSwwLjUtMS4zLDAtMS44IGwtMy40LTMuNEg4LjVjLTEuMy0xLjMtMS4zLTEyLjEsMC0xMy40aDQuOGwzLjMtMy40YzAuNS0wLjUsMC41LTEuMywwLTEuOEwxMyw4LjRDMTIuNSw3LjksMTEuNyw3LjksMTEuMiw4LjR6Ii8+JiN4YTsgICAgPGcgZmlsbD0iIzIxOTZGMyI+JiN4YTsgICAgICAgIDxwb2x5Z29uIHBvaW50cz0iMjUuMywxOC42IDMwLjcsMjQgMjUuMywyOS40Ii8+JiN4YTsgICAgICAgIDxyZWN0IHg9IjE2IiB5PSIyMiIgd2lkdGg9IjExIiBoZWlnaHQ9IjQiLz4mI3hhOyAgICA8L2c+JiN4YTs8L3N2Zz4=;fontStyle=1" vertex="1" parent="1">
          <mxGeometry x="290" y="640" width="48" height="48" as="geometry" />
        </mxCell>
        <mxCell id="0IGek_eJKDW3pPInhwZh-7" value="" style="shape=image;verticalLabelPosition=bottom;verticalAlign=top;imageAspect=0;aspect=fixed;image=data:image/svg+xml,PHN2ZyB4bWxucz0iaHR0cDovL3d3dy53My5vcmcvMjAwMC9zdmciIHZlcnNpb249IjEiIHZpZXdCb3g9IjAgMCA0OCA0OCIgZW5hYmxlLWJhY2tncm91bmQ9Im5ldyAwIDAgNDggNDgiPiYjeGE7ICAgIDxnIGZpbGw9IiMxNTY1QzAiPiYjeGE7ICAgICAgICA8cG9seWdvbiBwb2ludHM9IjQ2LjEsMjQgMzMsMzUgMzMsMTMiLz4mI3hhOyAgICAgICAgPHJlY3QgeD0iMTAiIHk9IjIwIiB3aWR0aD0iNCIgaGVpZ2h0PSI4Ii8+JiN4YTsgICAgICAgIDxyZWN0IHg9IjQiIHk9IjIwIiB3aWR0aD0iNCIgaGVpZ2h0PSI4Ii8+JiN4YTsgICAgICAgIDxyZWN0IHg9IjE2IiB5PSIyMCIgd2lkdGg9IjQiIGhlaWdodD0iOCIvPiYjeGE7ICAgICAgICA8cmVjdCB4PSIyMiIgeT0iMjAiIHdpZHRoPSIxNCIgaGVpZ2h0PSI4Ii8+JiN4YTsgICAgPC9nPiYjeGE7PC9zdmc+;" vertex="1" parent="1">
          <mxGeometry x="350" y="250" width="48" height="48" as="geometry" />
        </mxCell>
        <mxCell id="0IGek_eJKDW3pPInhwZh-8" value="" style="shape=image;verticalLabelPosition=bottom;verticalAlign=top;imageAspect=0;aspect=fixed;image=data:image/svg+xml,PHN2ZyB4bWxucz0iaHR0cDovL3d3dy53My5vcmcvMjAwMC9zdmciIHZlcnNpb249IjEiIHZpZXdCb3g9IjAgMCA0OCA0OCIgZW5hYmxlLWJhY2tncm91bmQ9Im5ldyAwIDAgNDggNDgiPiYjeGE7ICAgIDxwYXRoIGZpbGw9IiNGRkI3NEQiIGQ9Ik0xMCwxMmMtMi44LDAtNS0yLjItNS01czIuMi01LDUtNXM1LDIuMiw1LDVTMTIuOCwxMiwxMCwxMnoiLz4mI3hhOyAgICA8cGF0aCBmaWxsPSIjNjA3RDhCIiBkPSJNMiwyMnY4bDMsMmwxLDE0aDhsMS0xNGwzLTJ2LThjMC00LjQtMy42LTgtOC04aDBDNS42LDE0LDIsMTcuNiwyLDIyeiIvPiYjeGE7ICAgIDxnIGZpbGw9IiMyNjMyMzgiPiYjeGE7ICAgICAgICA8cGF0aCBkPSJNMjIuNCw0MC40Yy0wLjYsMi41LTEsMy42LTIuNCwzLjZjLTAuNiwwLTEuMi0wLjUtMS45LTEuMWMtMS0wLjgtMi4yLTEuOS00LjEtMS45djJjMS4xLDAsMS45LDAuNywyLjgsMS40IGMwLjksMC43LDEuOSwxLjYsMy4yLDEuNmMzLjEsMCwzLjgtMi45LDQuNC01LjJDMjUsMzguMiwyNS40LDM3LDI3LDM3di0yQzIzLjcsMzUsMjIuOSwzOC4xLDIyLjQsNDAuNHoiLz4mI3hhOyAgICAgICAgPHBvbHlnb24gcG9pbnRzPSIxNC40LDQwIDEwLDQwIDEwLDQ0IDE0LjEsNDQiLz4mI3hhOyAgICA8L2c+JiN4YTsgICAgPGNpcmNsZSBmaWxsPSIjNENBRjUwIiBjeD0iMzYiIGN5PSIzNiIgcj0iMTAiLz4mI3hhOyAgICA8cGF0aCBmaWxsPSIjZmZmIiBkPSJNMzUsMzRjMC4xLDAuMiwwLjEsMC4zLDAuMywwLjRjMC4xLDAuMSwwLjMsMC4yLDAuNSwwLjRjMC4yLDAuMSwwLjUsMC4yLDAuOCwwLjNjMC41LDAuMiwwLjksMC40LDEuMywwLjYgYzAuNCwwLjIsMC43LDAuNCwxLDAuN2MwLjMsMC4zLDAuNSwwLjYsMC43LDAuOWMwLjIsMC40LDAuMiwwLjgsMC4yLDEuM2MwLDAuNC0wLjEsMC44LTAuMiwxLjJjLTAuMSwwLjQtMC4zLDAuNy0wLjYsMC45IGMtMC4zLDAuMy0wLjYsMC41LTAuOSwwLjZjLTAuNCwwLjItMC44LDAuMy0xLjIsMC4zdjEuNWgtMS4ydi0xLjVjLTAuNCwwLTAuOC0wLjEtMS4yLTAuM2MtMC40LTAuMi0wLjctMC40LTEtMC42IGMtMC4zLTAuMy0wLjUtMC42LTAuNy0xLjFjLTAuMi0wLjQtMC4zLTAuOS0wLjMtMS41aDIuMmMwLDAuNCwwLDAuNywwLjEsMC45YzAuMSwwLjIsMC4yLDAuNCwwLjQsMC42YzAuMiwwLjEsMC4zLDAuMiwwLjUsMC4zIGMwLjIsMC4xLDAuNCwwLjEsMC42LDAuMWMwLjIsMCwwLjQsMCwwLjYtMC4xYzAuMi0wLjEsMC4zLTAuMiwwLjQtMC4zYzAuMS0wLjEsMC4yLTAuMywwLjMtMC40YzAuMS0wLjIsMC4xLTAuMywwLjEtMC41IGMwLTAuMiwwLTAuNC0wLjEtMC42Yy0wLjEtMC4yLTAuMS0wLjMtMC4zLTAuNGMtMC4xLTAuMS0wLjMtMC4zLTAuNS0wLjRjLTAuMi0wLjEtMC40LTAuMi0wLjctMC4zYy0wLjUtMC4yLTAuOS0wLjQtMS4zLTAuNiBjLTAuNC0wLjItMC43LTAuNC0xLTAuN2MtMC4zLTAuMy0wLjUtMC42LTAuNy0wLjljLTAuMi0wLjQtMC4yLTAuOC0wLjItMS4zYzAtMC40LDAuMS0wLjgsMC4yLTEuMmMwLjEtMC4zLDAuMy0wLjcsMC42LTAuOSBjMC4zLTAuMywwLjYtMC41LDAuOS0wLjZjMC40LTAuMiwwLjgtMC4zLDEuMi0wLjN2LTEuNmgxLjJ2MS42YzAuNCwwLjEsMC44LDAuMiwxLjIsMC40YzAuNCwwLjIsMC42LDAuNCwwLjksMC43IGMwLjIsMC4zLDAuNCwwLjYsMC42LDFjMC4xLDAuNCwwLjIsMC45LDAuMiwxLjRoLTIuMmMwLTAuNi0wLjEtMS0wLjQtMS4zYy0wLjItMC4zLTAuNi0wLjQtMS0wLjRjLTAuMiwwLTAuNCwwLTAuNiwwLjEgYy0wLjIsMC4xLTAuMywwLjItMC40LDAuM0MzNS4xLDMyLjcsMzUsMzIuOCwzNSwzM3MtMC4xLDAuMy0wLjEsMC41QzM0LjksMzMuNywzNC45LDMzLjksMzUsMzR6Ii8+JiN4YTs8L3N2Zz4=;" vertex="1" parent="1">
          <mxGeometry x="430" y="250" width="48" height="48" as="geometry" />
        </mxCell>
        <mxCell id="0IGek_eJKDW3pPInhwZh-9" value="" style="shape=image;verticalLabelPosition=bottom;verticalAlign=top;imageAspect=0;aspect=fixed;image=data:image/svg+xml,PHN2ZyB4bWxucz0iaHR0cDovL3d3dy53My5vcmcvMjAwMC9zdmciIHZlcnNpb249IjEiIHZpZXdCb3g9IjAgMCA0OCA0OCIgZW5hYmxlLWJhY2tncm91bmQ9Im5ldyAwIDAgNDggNDgiPiYjeGE7ICAgIDxwYXRoIGZpbGw9IiNGRkI3NEQiIGQ9Ik0yOSw0M3YtNC42bDIuNiwwLjVjMi45LDAuNiw1LjYtMS41LDUuOC00LjRMMzgsMjhsMi45LTEuMmMxLTAuNCwxLjQtMS42LDAuOC0yLjZMMzgsMTggYy0wLjYtNy42LTQuOS0xNS0xNi0xNUMxMC42LDMsNSwxMS40LDUsMjBjMCwzLjcsMS4zLDYuOSwzLjMsOS42YzEuOCwyLjUsMi43LDUuNSwyLjcsOC41bDAsNC44SDI5eiIvPiYjeGE7ICAgIDxwb2x5Z29uIGZpbGw9IiNGRjk4MDAiIHBvaW50cz0iMjksNDMgMjksMzguNCAyMiwzNyAyMiw0MyIvPiYjeGE7ICAgIDxjaXJjbGUgZmlsbD0iIzc4NDcxOSIgY3g9IjMzLjUiIGN5PSIyMS41IiByPSIxLjUiLz4mI3hhOyAgICA8cGF0aCBmaWxsPSIjRkY1NzIyIiBkPSJNMjEuNCwzQzEyLjMsMyw1LDEwLjMsNSwxOS40YzAsMTEuMSw2LDExLjQsNiwxOC42bDIuNi0wLjljMi4xLTAuNywzLjktMi4zLDQuNy00LjRsMi44LTYuOEwyNywyM3YtNiBjMCwwLDctMy44LDctMTAuM0MzMSw0LjIsMjUuNywzLDIxLjQsM3oiLz4mI3hhOyAgICA8ZyBmaWxsPSIjNTQ2RTdBIj4mI3hhOyAgICAgICAgPHBhdGggZD0iTTIxLDIuMWMtMC42LDAtMSwwLjQtMSwxdjEzLjljMCwwLjYsMC40LDEsMSwxczEtMC40LDEtMVYzLjFDMjIsMi41LDIxLjYsMi4xLDIxLDIuMXoiLz4mI3hhOyAgICAgICAgPHBhdGggZD0iTTM2LjksMzEuOWMtNy45LDAtMTAuMy00LjktMTAuNC01LjFjLTAuMi0wLjUtMC44LTAuNy0xLjMtMC41Yy0wLjUsMC4yLTAuNywwLjgtMC41LDEuMyBjMC4xLDAuMywzLDYuMywxMi4yLDYuM2MwLjYsMCwxLTAuNCwxLTFTMzcuNCwzMS45LDM2LjksMzEuOXoiLz4mI3hhOyAgICA8L2c+JiN4YTsgICAgPGNpcmNsZSBmaWxsPSIjMzc0NzRGIiBjeD0iMzciIGN5PSIzMyIgcj0iMiIvPiYjeGE7ICAgIDxjaXJjbGUgZmlsbD0iIzM3NDc0RiIgY3g9IjIxIiBjeT0iMjMiIHI9IjciLz4mI3hhOyAgICA8Y2lyY2xlIGZpbGw9IiM1NDZFN0EiIGN4PSIyMSIgY3k9IjIzIiByPSI0Ii8+JiN4YTs8L3N2Zz4=;" vertex="1" parent="1">
          <mxGeometry x="338" y="390" width="48" height="48" as="geometry" />
        </mxCell>
        <mxCell id="0IGek_eJKDW3pPInhwZh-10" value="" style="shape=image;verticalLabelPosition=bottom;verticalAlign=top;imageAspect=0;aspect=fixed;image=data:image/svg+xml,PHN2ZyB4bWxucz0iaHR0cDovL3d3dy53My5vcmcvMjAwMC9zdmciIHZlcnNpb249IjEiIHZpZXdCb3g9IjAgMCA0OCA0OCIgZW5hYmxlLWJhY2tncm91bmQ9Im5ldyAwIDAgNDggNDgiPiYjeGE7ICAgIDxwb2x5Z29uIGZpbGw9IiNGRjk4MDAiIHBvaW50cz0iMjQsMzcgMTksMzEgMTksMjUgMjksMjUgMjksMzEiLz4mI3hhOyAgICA8ZyBmaWxsPSIjRkZBNzI2Ij4mI3hhOyAgICAgICAgPGNpcmNsZSBjeD0iMzMiIGN5PSIxOSIgcj0iMiIvPiYjeGE7ICAgICAgICA8Y2lyY2xlIGN4PSIxNSIgY3k9IjE5IiByPSIyIi8+JiN4YTsgICAgPC9nPiYjeGE7ICAgIDxwYXRoIGZpbGw9IiNGRkI3NEQiIGQ9Ik0zMywxM2MwLTcuNi0xOC01LTE4LDBjMCwxLjEsMCw1LjksMCw3YzAsNSw0LDksOSw5czktNCw5LTlDMzMsMTguOSwzMywxNC4xLDMzLDEzeiIvPiYjeGE7ICAgIDxwYXRoIGZpbGw9IiM0MjQyNDIiIGQ9Ik0yNCw0Yy02LjEsMC0xMCw0LjktMTAsMTFjMCwwLjgsMCwyLjMsMCwyLjNsMiwxLjd2LTVsMTItNGw0LDR2NWwyLTEuN2MwLDAsMC0xLjUsMC0yLjNjMC00LTEtOC02LTlsLTEtMiBIMjR6Ii8+JiN4YTsgICAgPGcgZmlsbD0iIzc4NDcxOSI+JiN4YTsgICAgICAgIDxjaXJjbGUgY3g9IjI4IiBjeT0iMTkiIHI9IjEiLz4mI3hhOyAgICAgICAgPGNpcmNsZSBjeD0iMjAiIGN5PSIxOSIgcj0iMSIvPiYjeGE7ICAgIDwvZz4mI3hhOyAgICA8cG9seWdvbiBmaWxsPSIjZmZmIiBwb2ludHM9IjI0LDQzIDE5LDMxIDI0LDMyIDI5LDMxIi8+JiN4YTsgICAgPHBvbHlnb24gZmlsbD0iI0QzMkYyRiIgcG9pbnRzPSIyMywzNSAyMi4zLDM5LjUgMjQsNDMuNSAyNS43LDM5LjUgMjUsMzUgMjYsMzQgMjQsMzIgMjIsMzQiLz4mI3hhOyAgICA8cGF0aCBmaWxsPSIjNTQ2RTdBIiBkPSJNMjksMzFMMjksMzFsLTUsMTJsLTUtMTJjMCwwLTExLDItMTEsMTNoMzJDNDAsMzMsMjksMzEsMjksMzF6Ii8+JiN4YTs8L3N2Zz4=;fontStyle=1" vertex="1" parent="1">
          <mxGeometry x="194" y="517" width="48" height="48" as="geometry" />
        </mxCell>
        <mxCell id="0IGek_eJKDW3pPInhwZh-11" value="" style="shape=image;verticalLabelPosition=bottom;verticalAlign=top;imageAspect=0;aspect=fixed;image=data:image/svg+xml,PHN2ZyB4bWxucz0iaHR0cDovL3d3dy53My5vcmcvMjAwMC9zdmciIHZlcnNpb249IjEiIHZpZXdCb3g9IjAgMCA0OCA0OCIgZW5hYmxlLWJhY2tncm91bmQ9Im5ldyAwIDAgNDggNDgiPiYjeGE7ICAgIDxwYXRoIGZpbGw9Im5vbmUiIHN0cm9rZT0iI0Y0NDMzNiIgc3Ryb2tlLXdpZHRoPSI0IiBzdHJva2UtbWl0ZXJsaW1pdD0iMTAiIGQ9Ik03LDIwdi04YzAtMi4yLDEuOC00LDQtNGgxNGMxLjIsMCwyLjQsMC42LDMuMiwxLjYgTDM1LDE4Ii8+JiN4YTsgICAgPGcgZmlsbD0iIzM3NDc0RiI+JiN4YTsgICAgICAgIDxjaXJjbGUgY3g9IjM1IiBjeT0iMzciIHI9IjUiLz4mI3hhOyAgICAgICAgPGNpcmNsZSBjeD0iMTMiIGN5PSIzNyIgcj0iNSIvPiYjeGE7ICAgIDwvZz4mI3hhOyAgICA8cGF0aCBmaWxsPSIjRjQ0MzM2IiBkPSJNNDAuMiwxN0wzMywxNEg3Yy0xLjIsMC0yLDAuOC0yLDJ2MTBjMCwxLjIsMC44LDIsMiwyaDFjMC0yLjgsMi4yLTUsNS01czUsMi4yLDUsNWgxMmMwLTIuOCwyLjItNSw1LTUgczUsMi4yLDUsNWgxYzEuMiwwLDItMC44LDItMnYtNS4yQzQzLDE5LjIsNDEuOCwxNy42LDQwLjIsMTd6Ii8+JiN4YTsgICAgPGcgZmlsbD0iIzU0NkU3QSI+JiN4YTsgICAgICAgIDxjaXJjbGUgY3g9IjI0IiBjeT0iMzciIHI9IjMiLz4mI3hhOyAgICAgICAgPGNpcmNsZSBjeD0iMzUiIGN5PSIzNyIgcj0iMiIvPiYjeGE7ICAgICAgICA8Y2lyY2xlIGN4PSIxMyIgY3k9IjM3IiByPSIyIi8+JiN4YTsgICAgICAgIDxwYXRoIGQ9Ik0zMC40LDM5Yy0wLjMtMC42LTAuNC0xLjMtMC40LTJzMC4yLTEuNCwwLjQtMkgxNy42YzAuMywwLjYsMC40LDEuMywwLjQsMnMtMC4yLDEuNC0wLjQsMkgzMC40eiIvPiYjeGE7ICAgIDwvZz4mI3hhOzwvc3ZnPg==;fontStyle=1" vertex="1" parent="1">
          <mxGeometry x="325" y="520" width="48" height="48" as="geometry" />
        </mxCell>
        <mxCell id="0IGek_eJKDW3pPInhwZh-13" value="" style="shape=image;verticalLabelPosition=bottom;verticalAlign=top;imageAspect=0;aspect=fixed;image=data:image/svg+xml,PHN2ZyB4bWxucz0iaHR0cDovL3d3dy53My5vcmcvMjAwMC9zdmciIHZlcnNpb249IjEiIHZpZXdCb3g9IjAgMCA0OCA0OCIgZW5hYmxlLWJhY2tncm91bmQ9Im5ldyAwIDAgNDggNDgiPiYjeGE7ICAgIDxwb2x5Z29uIGZpbGw9IiNFOEVBRjYiIHBvaW50cz0iNDIsMzkgNiwzOSA2LDIzIDI0LDYgNDIsMjMiLz4mI3hhOyAgICA8ZyBmaWxsPSIjQzVDQUU5Ij4mI3hhOyAgICAgICAgPHBvbHlnb24gcG9pbnRzPSIzOSwyMSAzNCwxNiAzNCw5IDM5LDkiLz4mI3hhOyAgICAgICAgPHJlY3QgeD0iNiIgeT0iMzkiIHdpZHRoPSIzNiIgaGVpZ2h0PSI1Ii8+JiN4YTsgICAgPC9nPiYjeGE7ICAgIDxwb2x5Z29uIGZpbGw9IiNCNzFDMUMiIHBvaW50cz0iMjQsNC4zIDQsMjIuOSA2LDI1LjEgMjQsOC40IDQyLDI1LjEgNDQsMjIuOSIvPiYjeGE7ICAgIDxyZWN0IHg9IjE4IiB5PSIyOCIgZmlsbD0iI0Q4NDMxNSIgd2lkdGg9IjEyIiBoZWlnaHQ9IjE2Ii8+JiN4YTsgICAgPHJlY3QgeD0iMjEiIHk9IjE3IiBmaWxsPSIjMDE1NzlCIiB3aWR0aD0iNiIgaGVpZ2h0PSI2Ii8+JiN4YTsgICAgPHBhdGggZmlsbD0iI0ZGOEE2NSIgZD0iTTI3LjUsMzUuNWMtMC4zLDAtMC41LDAuMi0wLjUsMC41djJjMCwwLjMsMC4yLDAuNSwwLjUsMC41UzI4LDM4LjMsMjgsMzh2LTJDMjgsMzUuNywyNy44LDM1LjUsMjcuNSwzNS41eiIvPiYjeGE7PC9zdmc+;fontStyle=1" vertex="1" parent="1">
          <mxGeometry x="162" y="517" width="48" height="48" as="geometry" />
        </mxCell>
        <mxCell id="0IGek_eJKDW3pPInhwZh-36" style="edgeStyle=orthogonalEdgeStyle;rounded=0;orthogonalLoop=1;jettySize=auto;html=1;exitX=1;exitY=0.5;exitDx=0;exitDy=0;entryX=0;entryY=0.5;entryDx=0;entryDy=0;" edge="1" parent="1" source="0IGek_eJKDW3pPInhwZh-14" target="0IGek_eJKDW3pPInhwZh-19">
          <mxGeometry relative="1" as="geometry" />
        </mxCell>
        <mxCell id="0IGek_eJKDW3pPInhwZh-14" value="" style="shape=image;verticalLabelPosition=bottom;verticalAlign=top;imageAspect=0;aspect=fixed;image=data:image/svg+xml,PHN2ZyB4bWxucz0iaHR0cDovL3d3dy53My5vcmcvMjAwMC9zdmciIHZlcnNpb249IjEiIHZpZXdCb3g9IjAgMCA0OCA0OCIgZW5hYmxlLWJhY2tncm91bmQ9Im5ldyAwIDAgNDggNDgiPiYjeGE7ICAgIDxnIGZpbGw9IiNGRjk4MDAiPiYjeGE7ICAgICAgICA8cmVjdCB4PSIxIiB5PSIzOCIgd2lkdGg9IjQ2IiBoZWlnaHQ9IjIiLz4mI3hhOyAgICAgICAgPHJlY3QgeD0iMjUiIHk9IjE4IiB3aWR0aD0iNCIgaGVpZ2h0PSIxNiIvPiYjeGE7ICAgICAgICA8cmVjdCB4PSIzMSIgeT0iMTgiIHdpZHRoPSI0IiBoZWlnaHQ9IjE2Ii8+JiN4YTsgICAgICAgIDxyZWN0IHg9IjM3IiB5PSIxOCIgd2lkdGg9IjQiIGhlaWdodD0iMTYiLz4mI3hhOyAgICAgICAgPHJlY3QgeD0iMTkiIHk9IjE4IiB3aWR0aD0iNCIgaGVpZ2h0PSIxNiIvPiYjeGE7ICAgICAgICA8cmVjdCB4PSIxMyIgeT0iMTgiIHdpZHRoPSI0IiBoZWlnaHQ9IjE2Ii8+JiN4YTsgICAgICAgIDxyZWN0IHg9IjciIHk9IjE4IiB3aWR0aD0iNCIgaGVpZ2h0PSIxNiIvPiYjeGE7ICAgICAgICA8cG9seWdvbiBwb2ludHM9IjQzLDE2IDUsMTYgNSwxMyAyNCw0IDQzLDEzIi8+JiN4YTsgICAgICAgIDxyZWN0IHg9IjUiIHk9IjM0IiB3aWR0aD0iMzgiIGhlaWdodD0iMiIvPiYjeGE7ICAgIDwvZz4mI3hhOyAgICA8ZyBmaWxsPSIjRUY2QzAwIj4mI3hhOyAgICAgICAgPHJlY3QgeD0iMjUiIHk9IjE2IiB3aWR0aD0iNCIgaGVpZ2h0PSIyIi8+JiN4YTsgICAgICAgIDxyZWN0IHg9IjMxIiB5PSIxNiIgd2lkdGg9IjQiIGhlaWdodD0iMiIvPiYjeGE7ICAgICAgICA8cmVjdCB4PSIzNyIgeT0iMTYiIHdpZHRoPSI0IiBoZWlnaHQ9IjIiLz4mI3hhOyAgICAgICAgPHJlY3QgeD0iMTkiIHk9IjE2IiB3aWR0aD0iNCIgaGVpZ2h0PSIyIi8+JiN4YTsgICAgICAgIDxyZWN0IHg9IjEzIiB5PSIxNiIgd2lkdGg9IjQiIGhlaWdodD0iMiIvPiYjeGE7ICAgICAgICA8cmVjdCB4PSI3IiB5PSIxNiIgd2lkdGg9IjQiIGhlaWdodD0iMiIvPiYjeGE7ICAgICAgICA8cmVjdCB4PSIzIiB5PSIzNiIgd2lkdGg9IjQyIiBoZWlnaHQ9IjIiLz4mI3hhOyAgICAgICAgPGNpcmNsZSBjeD0iMjQiIGN5PSIxMSIgcj0iMiIvPiYjeGE7ICAgIDwvZz4mI3hhOzwvc3ZnPg==;fontStyle=1" vertex="1" parent="1">
          <mxGeometry x="375" y="540" width="23" height="23" as="geometry" />
        </mxCell>
        <mxCell id="0IGek_eJKDW3pPInhwZh-16" value="" style="shape=image;verticalLabelPosition=bottom;verticalAlign=top;imageAspect=0;aspect=fixed;image=data:image/svg+xml,PHN2ZyB4bWxucz0iaHR0cDovL3d3dy53My5vcmcvMjAwMC9zdmciIHZlcnNpb249IjEiIHZpZXdCb3g9IjAgMCA0OCA0OCIgZW5hYmxlLWJhY2tncm91bmQ9Im5ldyAwIDAgNDggNDgiPiYjeGE7ICAgIDxnIGZpbGw9IiNGRkE3MjYiPiYjeGE7ICAgICAgICA8Y2lyY2xlIGN4PSIxMCIgY3k9IjI2IiByPSI0Ii8+JiN4YTsgICAgICAgIDxjaXJjbGUgY3g9IjM4IiBjeT0iMjYiIHI9IjQiLz4mI3hhOyAgICA8L2c+JiN4YTsgICAgPHBhdGggZmlsbD0iI0ZGQjc0RCIgZD0iTTM5LDE5YzAtMTIuNy0zMC04LjMtMzAsMGMwLDEuOCwwLDguMiwwLDEwYzAsOC4zLDYuNywxNSwxNSwxNXMxNS02LjcsMTUtMTVDMzksMjcuMiwzOSwyMC44LDM5LDE5eiIvPiYjeGE7ICAgIDxwYXRoIGZpbGw9IiNGRjU3MjIiIGQ9Ik0yNCwzQzE0LjYsMyw3LDEwLjYsNywyMGMwLDEuMiwwLDMuNCwwLDMuNEw5LDI1di0zbDIxLTkuOGw5LDkuOHYzbDItMS42YzAsMCwwLTIuMSwwLTMuNCBDNDEsMTIsMzUuMywzLDI0LDN6Ii8+JiN4YTsgICAgPGcgZmlsbD0iIzc4NDcxOSI+JiN4YTsgICAgICAgIDxjaXJjbGUgY3g9IjMxIiBjeT0iMjYiIHI9IjIiLz4mI3hhOyAgICAgICAgPGNpcmNsZSBjeD0iMTciIGN5PSIyNiIgcj0iMiIvPiYjeGE7ICAgIDwvZz4mI3hhOyAgICA8cGF0aCBmaWxsPSIjNzU3NTc1IiBkPSJNNDMsMjRjLTAuNiwwLTEsMC40LTEsMXYtN2MwLTguOC03LjItMTYtMTYtMTZoLTdjLTAuNiwwLTEsMC40LTEsMXMwLjQsMSwxLDFoN2M3LjcsMCwxNCw2LjMsMTQsMTR2MTAgYzAsMC42LDAuNCwxLDEsMXMxLTAuNCwxLTF2MmMwLDMuOS0zLjEsNy03LDdIMjRjLTAuNiwwLTEsMC40LTEsMXMwLjQsMSwxLDFoMTFjNSwwLDktNCw5LTl2LTVDNDQsMjQuNCw0My42LDI0LDQzLDI0eiIvPiYjeGE7ICAgIDxnIGZpbGw9IiMzNzQ3NEYiPiYjeGE7ICAgICAgICA8cGF0aCBkPSJNNDMsMjJoLTFjLTEuMSwwLTIsMC45LTIsMnY0YzAsMS4xLDAuOSwyLDIsMmgxYzEuMSwwLDItMC45LDItMnYtNEM0NSwyMi45LDQ0LjEsMjIsNDMsMjJ6Ii8+JiN4YTsgICAgICAgIDxjaXJjbGUgY3g9IjI0IiBjeT0iMzgiIHI9IjIiLz4mI3hhOyAgICA8L2c+JiN4YTs8L3N2Zz4=;fontStyle=1" vertex="1" parent="1">
          <mxGeometry x="340" y="640" width="48" height="48" as="geometry" />
        </mxCell>
        <mxCell id="0IGek_eJKDW3pPInhwZh-37" style="edgeStyle=orthogonalEdgeStyle;rounded=0;orthogonalLoop=1;jettySize=auto;html=1;exitX=1;exitY=0.5;exitDx=0;exitDy=0;" edge="1" parent="1" source="0IGek_eJKDW3pPInhwZh-17">
          <mxGeometry relative="1" as="geometry">
            <mxPoint x="470" y="590" as="targetPoint" />
          </mxGeometry>
        </mxCell>
        <mxCell id="0IGek_eJKDW3pPInhwZh-17" value="" style="shape=image;verticalLabelPosition=bottom;verticalAlign=top;imageAspect=0;aspect=fixed;image=data:image/svg+xml,PHN2ZyB4bWxucz0iaHR0cDovL3d3dy53My5vcmcvMjAwMC9zdmciIHZlcnNpb249IjEiIHZpZXdCb3g9IjAgMCA0OCA0OCIgZW5hYmxlLWJhY2tncm91bmQ9Im5ldyAwIDAgNDggNDgiPiYjeGE7ICAgIDxnIGZpbGw9IiNGRjk4MDAiPiYjeGE7ICAgICAgICA8cmVjdCB4PSIxIiB5PSIzOCIgd2lkdGg9IjQ2IiBoZWlnaHQ9IjIiLz4mI3hhOyAgICAgICAgPHJlY3QgeD0iMjUiIHk9IjE4IiB3aWR0aD0iNCIgaGVpZ2h0PSIxNiIvPiYjeGE7ICAgICAgICA8cmVjdCB4PSIzMSIgeT0iMTgiIHdpZHRoPSI0IiBoZWlnaHQ9IjE2Ii8+JiN4YTsgICAgICAgIDxyZWN0IHg9IjM3IiB5PSIxOCIgd2lkdGg9IjQiIGhlaWdodD0iMTYiLz4mI3hhOyAgICAgICAgPHJlY3QgeD0iMTkiIHk9IjE4IiB3aWR0aD0iNCIgaGVpZ2h0PSIxNiIvPiYjeGE7ICAgICAgICA8cmVjdCB4PSIxMyIgeT0iMTgiIHdpZHRoPSI0IiBoZWlnaHQ9IjE2Ii8+JiN4YTsgICAgICAgIDxyZWN0IHg9IjciIHk9IjE4IiB3aWR0aD0iNCIgaGVpZ2h0PSIxNiIvPiYjeGE7ICAgICAgICA8cG9seWdvbiBwb2ludHM9IjQzLDE2IDUsMTYgNSwxMyAyNCw0IDQzLDEzIi8+JiN4YTsgICAgICAgIDxyZWN0IHg9IjUiIHk9IjM0IiB3aWR0aD0iMzgiIGhlaWdodD0iMiIvPiYjeGE7ICAgIDwvZz4mI3hhOyAgICA8ZyBmaWxsPSIjRUY2QzAwIj4mI3hhOyAgICAgICAgPHJlY3QgeD0iMjUiIHk9IjE2IiB3aWR0aD0iNCIgaGVpZ2h0PSIyIi8+JiN4YTsgICAgICAgIDxyZWN0IHg9IjMxIiB5PSIxNiIgd2lkdGg9IjQiIGhlaWdodD0iMiIvPiYjeGE7ICAgICAgICA8cmVjdCB4PSIzNyIgeT0iMTYiIHdpZHRoPSI0IiBoZWlnaHQ9IjIiLz4mI3hhOyAgICAgICAgPHJlY3QgeD0iMTkiIHk9IjE2IiB3aWR0aD0iNCIgaGVpZ2h0PSIyIi8+JiN4YTsgICAgICAgIDxyZWN0IHg9IjEzIiB5PSIxNiIgd2lkdGg9IjQiIGhlaWdodD0iMiIvPiYjeGE7ICAgICAgICA8cmVjdCB4PSI3IiB5PSIxNiIgd2lkdGg9IjQiIGhlaWdodD0iMiIvPiYjeGE7ICAgICAgICA8cmVjdCB4PSIzIiB5PSIzNiIgd2lkdGg9IjQyIiBoZWlnaHQ9IjIiLz4mI3hhOyAgICAgICAgPGNpcmNsZSBjeD0iMjQiIGN5PSIxMSIgcj0iMiIvPiYjeGE7ICAgIDwvZz4mI3hhOzwvc3ZnPg==;fontStyle=1" vertex="1" parent="1">
          <mxGeometry x="386" y="660" width="28" height="28" as="geometry" />
        </mxCell>
        <mxCell id="0IGek_eJKDW3pPInhwZh-18" value="" style="shape=image;verticalLabelPosition=bottom;verticalAlign=top;imageAspect=0;aspect=fixed;image=data:image/svg+xml,PHN2ZyB4bWxucz0iaHR0cDovL3d3dy53My5vcmcvMjAwMC9zdmciIHZlcnNpb249IjEiIHZpZXdCb3g9IjAgMCA0OCA0OCIgZW5hYmxlLWJhY2tncm91bmQ9Im5ldyAwIDAgNDggNDgiPiYjeGE7ICAgIDxwYXRoIGZpbGw9IiM4ODBFNEYiIGQ9Ik0zOCw0M0gxMGMtMi4yLDAtNC0xLjgtNC00VjExYzAtMi4yLDEuOC00LDQtNGgyOGMyLjIsMCw0LDEuOCw0LDR2MjhDNDIsNDEuMiw0MC4yLDQzLDM4LDQzeiIvPiYjeGE7ICAgIDxnIGZpbGw9IiNGRkQ1NEYiPiYjeGE7ICAgICAgICA8cGF0aCBkPSJNMTUuOSwyOGwyLjEtOS4xaDIuOGwtMy42LDEyLjZoLTIuNkwxMSwxOC45aDIuOEwxNS45LDI4eiIvPiYjeGE7ICAgICAgICA8cGF0aCBkPSJNMjUuNiwzMS41aC0yLjVWMTguOWgyLjVWMzEuNXoiLz4mI3hhOyAgICAgICAgPHBhdGggZD0iTTMxLjIsMjcuMXY0LjRoLTIuNVYxOC45aDQuM2MzLjcsMCw0LjEsMy40LDQuMSw0LjJjMCwxLjItMC41LDQtNC4xLDRIMzEuMnogTTMxLjIsMjQuOWgxLjcgYzEuMywwLDEuNS0xLjEsMS41LTEuOWMwLTEuNi0wLjktMi4xLTEuNS0yLjFoLTEuN1YyNC45eiIvPiYjeGE7ICAgIDwvZz4mI3hhOzwvc3ZnPg==;fontStyle=1" vertex="1" parent="1">
          <mxGeometry x="530" y="568" width="48" height="48" as="geometry" />
        </mxCell>
        <mxCell id="0IGek_eJKDW3pPInhwZh-19" value="" style="shape=image;verticalLabelPosition=bottom;verticalAlign=top;imageAspect=0;aspect=fixed;image=data:image/svg+xml,PHN2ZyB4bWxucz0iaHR0cDovL3d3dy53My5vcmcvMjAwMC9zdmciIHZlcnNpb249IjEiIHZpZXdCb3g9IjAgMCA0OCA0OCIgZW5hYmxlLWJhY2tncm91bmQ9Im5ldyAwIDAgNDggNDgiPiYjeGE7ICAgIDxnIGZpbGw9IiNGRjk4MDAiPiYjeGE7ICAgICAgICA8cmVjdCB4PSIxIiB5PSIzOCIgd2lkdGg9IjQ2IiBoZWlnaHQ9IjIiLz4mI3hhOyAgICAgICAgPHJlY3QgeD0iMjUiIHk9IjE4IiB3aWR0aD0iNCIgaGVpZ2h0PSIxNiIvPiYjeGE7ICAgICAgICA8cmVjdCB4PSIzMSIgeT0iMTgiIHdpZHRoPSI0IiBoZWlnaHQ9IjE2Ii8+JiN4YTsgICAgICAgIDxyZWN0IHg9IjM3IiB5PSIxOCIgd2lkdGg9IjQiIGhlaWdodD0iMTYiLz4mI3hhOyAgICAgICAgPHJlY3QgeD0iMTkiIHk9IjE4IiB3aWR0aD0iNCIgaGVpZ2h0PSIxNiIvPiYjeGE7ICAgICAgICA8cmVjdCB4PSIxMyIgeT0iMTgiIHdpZHRoPSI0IiBoZWlnaHQ9IjE2Ii8+JiN4YTsgICAgICAgIDxyZWN0IHg9IjciIHk9IjE4IiB3aWR0aD0iNCIgaGVpZ2h0PSIxNiIvPiYjeGE7ICAgICAgICA8cG9seWdvbiBwb2ludHM9IjQzLDE2IDUsMTYgNSwxMyAyNCw0IDQzLDEzIi8+JiN4YTsgICAgICAgIDxyZWN0IHg9IjUiIHk9IjM0IiB3aWR0aD0iMzgiIGhlaWdodD0iMiIvPiYjeGE7ICAgIDwvZz4mI3hhOyAgICA8ZyBmaWxsPSIjRUY2QzAwIj4mI3hhOyAgICAgICAgPHJlY3QgeD0iMjUiIHk9IjE2IiB3aWR0aD0iNCIgaGVpZ2h0PSIyIi8+JiN4YTsgICAgICAgIDxyZWN0IHg9IjMxIiB5PSIxNiIgd2lkdGg9IjQiIGhlaWdodD0iMiIvPiYjeGE7ICAgICAgICA8cmVjdCB4PSIzNyIgeT0iMTYiIHdpZHRoPSI0IiBoZWlnaHQ9IjIiLz4mI3hhOyAgICAgICAgPHJlY3QgeD0iMTkiIHk9IjE2IiB3aWR0aD0iNCIgaGVpZ2h0PSIyIi8+JiN4YTsgICAgICAgIDxyZWN0IHg9IjEzIiB5PSIxNiIgd2lkdGg9IjQiIGhlaWdodD0iMiIvPiYjeGE7ICAgICAgICA8cmVjdCB4PSI3IiB5PSIxNiIgd2lkdGg9IjQiIGhlaWdodD0iMiIvPiYjeGE7ICAgICAgICA8cmVjdCB4PSIzIiB5PSIzNiIgd2lkdGg9IjQyIiBoZWlnaHQ9IjIiLz4mI3hhOyAgICAgICAgPGNpcmNsZSBjeD0iMjQiIGN5PSIxMSIgcj0iMiIvPiYjeGE7ICAgIDwvZz4mI3hhOzwvc3ZnPg==;fontStyle=1" vertex="1" parent="1">
          <mxGeometry x="470" y="558" width="68" height="68" as="geometry" />
        </mxCell>
        <mxCell id="0IGek_eJKDW3pPInhwZh-20" value="" style="shape=image;verticalLabelPosition=bottom;verticalAlign=top;imageAspect=0;aspect=fixed;image=data:image/svg+xml,PHN2ZyB4bWxucz0iaHR0cDovL3d3dy53My5vcmcvMjAwMC9zdmciIHZlcnNpb249IjEiIHZpZXdCb3g9IjAgMCA0OCA0OCIgZW5hYmxlLWJhY2tncm91bmQ9Im5ldyAwIDAgNDggNDgiPiYjeGE7ICAgIDxwYXRoIGZpbGw9IiNDRkQ4REMiIGQ9Ik0yNCwzQzEyLjQsMywzLDEyLjQsMywyNGMwLDExLjYsOS40LDIxLDIxLDIxYzAuMywwLDAuNywwLDEtMC4xVjMuMUMyNC43LDMsMjQuMywzLDI0LDN6Ii8+JiN4YTsgICAgPHBhdGggZmlsbD0iIzM3NDc0RiIgZD0iTTI1LDMuMXY0MS45YzQuMS0wLjIsNy45LTEuNSwxMS0zLjdWNi44QzMyLjksNC42LDI5LjEsMy4yLDI1LDMuMXoiLz4mI3hhOyAgICA8cGF0aCBmaWxsPSIjRkZCNzREIiBkPSJNMjAuNSwxM0MxNC4xLDEzLjMsOC45LDE4LjcsOSwyNS4xYzAsMi44LDEsNS40LDIuNyw3LjVjMS40LDEuNywyLjMsMy45LDIuMyw2LjF2My44YzMsMS42LDYuNCwyLjUsMTAsMi41IGMwLjMsMCwwLjcsMCwxLTAuMWMwLjcsMCwxLjMtMC4xLDItMC4ydi05LjRjMy42LTIuMSw2LTUuOSw2LTEwLjRDMzMsMTguMiwyNy40LDEyLjcsMjAuNSwxM3oiLz4mI3hhOyAgICA8cGF0aCBmaWxsPSIjRkZCNzREIiBkPSJNMjksMzguNkwyNSwzOHYtOWg4bC0wLjcsN0MzMi4xLDM3LjYsMzAuNywzOC44LDI5LDM4LjZ6Ii8+JiN4YTsgICAgPHBvbHlnb24gZmlsbD0iI0ZGQjc0RCIgcG9pbnRzPSIzOSwyOSAzMiwzMSAzMSwyNiAzMiwyMiIvPiYjeGE7ICAgIDxjaXJjbGUgZmlsbD0iIzc4NDcxOSIgY3g9IjI5LjUiIGN5PSIyNS41IiByPSIxLjUiLz4mI3hhOyAgICA8cGF0aCBmaWxsPSIjRkY1NzIyIiBkPSJNMjEsMTJjLTcuMiwwLTEzLDUuOC0xMywxM2MwLDcuNiw1LjEsOSw2LDEzbDQtM3YtOGw1LTJsMS00YzMuMiwwLDYtMy45LDYtNi4xQzI3LjksMTMsMjQuNCwxMiwyMSwxMnoiLz4mI3hhOyAgICA8Y2lyY2xlIGZpbGw9IiNGRkI3NEQiIGN4PSIxOSIgY3k9IjI3IiByPSIzIi8+JiN4YTsgICAgPHBhdGggZmlsbD0iI0NGRDhEQyIgZD0iTTQ1LDI0YzAtNy4xLTMuNi0xMy40LTktMTcuMnYzNC40QzQxLjQsMzcuNCw0NSwzMS4xLDQ1LDI0eiIvPiYjeGE7ICAgIDxwYXRoIGZpbGw9IiNGRjk4MDAiIGQ9Ik0yMCw0NC42YzEuMywwLjIsMi42LDAuNCw0LDAuNGMwLjMsMCwwLjcsMCwxLTAuMWMwLjcsMCwxLjMtMC4xLDItMC4ydi02LjVsLTctMVY0NC42eiIvPiYjeGE7PC9zdmc+;fontStyle=1" vertex="1" parent="1">
          <mxGeometry x="570" y="568" width="48" height="48" as="geometry" />
        </mxCell>
        <mxCell id="0IGek_eJKDW3pPInhwZh-21" value="" style="shape=image;verticalLabelPosition=bottom;verticalAlign=top;imageAspect=0;aspect=fixed;image=data:image/svg+xml,PHN2ZyB4bWxucz0iaHR0cDovL3d3dy53My5vcmcvMjAwMC9zdmciIHZlcnNpb249IjEiIHZpZXdCb3g9IjAgMCA0OCA0OCIgZW5hYmxlLWJhY2tncm91bmQ9Im5ldyAwIDAgNDggNDgiPiYjeGE7ICAgIDxyZWN0IHg9IjE2IiB5PSIxNSIgZmlsbD0iI0JGMzYwQyIgd2lkdGg9IjE2IiBoZWlnaHQ9IjE4Ii8+JiN4YTsgICAgPHBhdGggZmlsbD0iIzc4OTA5QyIgZD0iTTQwLDQ0SDhjMC0xMSwxMS0xMywxMS0xM2gxMEMyOSwzMSw0MCwzMyw0MCw0NHoiLz4mI3hhOyAgICA8cGF0aCBmaWxsPSIjRkY5ODAwIiBkPSJNMjQsMzdjLTIuMiwwLTUtNi01LTZ2LTZoMTB2NkMyOSwzMSwyNi4yLDM3LDI0LDM3eiIvPiYjeGE7ICAgIDxwYXRoIGZpbGw9IiNGRkI3NEQiIGQ9Ik0zMywxNGMwLTcuNi0xOC01LTE4LDBjMCwxLjEsMCw1LjksMCw3YzAsNSw0LDksOSw5czktNCw5LTlDMzMsMTkuOSwzMywxNS4xLDMzLDE0eiIvPiYjeGE7ICAgIDxwYXRoIGZpbGw9IiNGRjU3MjIiIGQ9Ik0yNCw0QzE3LjksNCw5LDcuNCw5LDI3LjNsNyw0LjdWMTlsMTItN2w0LDV2MTVsNy02YzAtNC0wLjctMjAtMTEtMjBsLTEtMkgyNHoiLz4mI3hhOyAgICA8cGF0aCBmaWxsPSIjRkZCNzREIiBkPSJNMjQsMzhjLTQuNCwwLTUtNy01LTdzMi41LDQsNSw0czUtNCw1LTRTMjguNCwzOCwyNCwzOHoiLz4mI3hhOyAgICA8Y2lyY2xlIGZpbGw9IiM3ODQ3MTkiIGN4PSIyOCIgY3k9IjIxIiByPSIxIi8+JiN4YTsgICAgPGNpcmNsZSBmaWxsPSIjNzg0NzE5IiBjeD0iMjAiIGN5PSIyMSIgcj0iMSIvPiYjeGE7PC9zdmc+;fontStyle=1" vertex="1" parent="1">
          <mxGeometry x="600" y="568" width="48" height="48" as="geometry" />
        </mxCell>
        <mxCell id="0IGek_eJKDW3pPInhwZh-34" style="edgeStyle=orthogonalEdgeStyle;rounded=0;orthogonalLoop=1;jettySize=auto;html=1;exitX=1;exitY=0.5;exitDx=0;exitDy=0;entryX=0;entryY=0.5;entryDx=0;entryDy=0;" edge="1" parent="1" source="0IGek_eJKDW3pPInhwZh-22" target="0IGek_eJKDW3pPInhwZh-11">
          <mxGeometry relative="1" as="geometry" />
        </mxCell>
        <mxCell id="0IGek_eJKDW3pPInhwZh-22" value="" style="shape=image;verticalLabelPosition=bottom;verticalAlign=top;imageAspect=0;aspect=fixed;image=data:image/svg+xml,PHN2ZyB4bWxucz0iaHR0cDovL3d3dy53My5vcmcvMjAwMC9zdmciIHZlcnNpb249IjEiIHZpZXdCb3g9IjAgMCA0OCA0OCIgZW5hYmxlLWJhY2tncm91bmQ9Im5ldyAwIDAgNDggNDgiPiYjeGE7ICAgIDxwYXRoIGZpbGw9IiM0MjQyNDIiIGQ9Ik0yNyw3aC02Yy0xLjcsMC0zLDEuMy0zLDN2M2gydi0zYzAtMC42LDAuNC0xLDEtMWg2YzAuNiwwLDEsMC40LDEsMXYzaDJ2LTNDMzAsOC4zLDI4LjcsNywyNyw3eiIvPiYjeGE7ICAgIDxwYXRoIGZpbGw9IiNFNjUxMDAiIGQ9Ik00MCw0M0g4Yy0yLjIsMC00LTEuOC00LTRWMTVjMC0yLjIsMS44LTQsNC00aDMyYzIuMiwwLDQsMS44LDQsNHYyNEM0NCw0MS4yLDQyLjIsNDMsNDAsNDN6Ii8+JiN4YTsgICAgPHBhdGggZmlsbD0iI0ZGNkU0MCIgZD0iTTQwLDI4SDhjLTIuMiwwLTQtMS44LTQtNHYtOWMwLTIuMiwxLjgtNCw0LTRoMzJjMi4yLDAsNCwxLjgsNCw0djlDNDQsMjYuMiw0Mi4yLDI4LDQwLDI4eiIvPiYjeGE7ICAgIDxwYXRoIGZpbGw9IiNGRkYzRTAiIGQ9Ik0yNiwyNmgtNGMtMC42LDAtMS0wLjQtMS0xdi0yYzAtMC42LDAuNC0xLDEtMWg0YzAuNiwwLDEsMC40LDEsMXYyQzI3LDI1LjYsMjYuNiwyNiwyNiwyNnoiLz4mI3hhOzwvc3ZnPg==;fontStyle=1" vertex="1" parent="1">
          <mxGeometry x="230" y="520" width="48" height="48" as="geometry" />
        </mxCell>
        <mxCell id="0IGek_eJKDW3pPInhwZh-23" value="整理贷款材料1h" style="text;strokeColor=none;align=center;fillColor=none;html=1;verticalAlign=middle;whiteSpace=wrap;rounded=0;fontStyle=1" vertex="1" parent="1">
          <mxGeometry x="154" y="481" width="84" height="36" as="geometry" />
        </mxCell>
        <UserObject label="电话预约&lt;div&gt;&amp;nbsp; &amp;nbsp;5min&lt;/div&gt;" link="draw.io" id="0IGek_eJKDW3pPInhwZh-24">
          <mxCell style="text;whiteSpace=wrap;html=1;fontStyle=1" vertex="1" parent="1">
            <mxGeometry x="326.5" y="710" width="70" height="40" as="geometry" />
          </mxCell>
        </UserObject>
        <UserObject label="开车赶向银行&lt;div&gt;&amp;nbsp; &amp;nbsp; &amp;nbsp;2h&lt;/div&gt;" link="draw.io" id="0IGek_eJKDW3pPInhwZh-25">
          <mxCell style="text;whiteSpace=wrap;html=1;fontStyle=1" vertex="1" parent="1">
            <mxGeometry x="326.5" y="470" width="83.5" height="40" as="geometry" />
          </mxCell>
        </UserObject>
        <UserObject label="一对一咨询服务&lt;div&gt;&amp;nbsp; &amp;nbsp; &amp;nbsp; &amp;nbsp; &amp;nbsp; &amp;nbsp; &amp;nbsp;1h&lt;/div&gt;" link="draw.io" id="0IGek_eJKDW3pPInhwZh-26">
          <mxCell style="text;whiteSpace=wrap;html=1;fontStyle=1" vertex="1" parent="1">
            <mxGeometry x="538" y="515" width="100" height="40" as="geometry" />
          </mxCell>
        </UserObject>
        <mxCell id="0IGek_eJKDW3pPInhwZh-33" style="edgeStyle=orthogonalEdgeStyle;rounded=0;orthogonalLoop=1;jettySize=auto;html=1;exitX=1;exitY=0.5;exitDx=0;exitDy=0;entryX=0;entryY=0.5;entryDx=0;entryDy=0;" edge="1" parent="1" source="0IGek_eJKDW3pPInhwZh-30" target="0IGek_eJKDW3pPInhwZh-13">
          <mxGeometry relative="1" as="geometry" />
        </mxCell>
        <mxCell id="0IGek_eJKDW3pPInhwZh-38" style="edgeStyle=orthogonalEdgeStyle;rounded=0;orthogonalLoop=1;jettySize=auto;html=1;exitX=1;exitY=0.5;exitDx=0;exitDy=0;entryX=0;entryY=0.5;entryDx=0;entryDy=0;" edge="1" parent="1" source="0IGek_eJKDW3pPInhwZh-30" target="0IGek_eJKDW3pPInhwZh-6">
          <mxGeometry relative="1" as="geometry">
            <Array as="points">
              <mxPoint x="140" y="601" />
              <mxPoint x="140" y="664" />
            </Array>
          </mxGeometry>
        </mxCell>
        <mxCell id="0IGek_eJKDW3pPInhwZh-30" value="做出贷款决定" style="text;strokeColor=none;align=center;fillColor=none;html=1;verticalAlign=middle;whiteSpace=wrap;rounded=0;fontStyle=1" vertex="1" parent="1">
          <mxGeometry x="20" y="586" width="100" height="30" as="geometry" />
        </mxCell>
      </root>
    </mxGraphModel>
  </diagram>
</mxfile>
